<?xml version="1.0" standalone="no"?>
<!DOCTYPE svg PUBLIC "-//W3C//DTD SVG 20010904//EN"
 "http://www.w3.org/TR/2001/REC-SVG-20010904/DTD/svg10.dtd">
<svg version="1.0" xmlns="http://www.w3.org/2000/svg"
 width="898.000000pt" height="1280.000000pt" viewBox="0 0 898.000000 1280.000000"
 preserveAspectRatio="xMidYMid meet">
<metadata>
Created by potrace 1.15, written by Peter Selinger 2001-2017
</metadata>
<g transform="translate(0.000000,1280.000000) scale(0.100000,-0.100000)"
fill="#000000" stroke="none">
<path d="M4878 12786 c-93 -33 -349 -264 -435 -391 -181 -270 -210 -556 -93
-908 53 -158 126 -305 260 -522 123 -199 289 -526 346 -680 20 -55 52 -161 70
-235 52 -206 129 -348 197 -365 33 -9 67 17 130 100 143 188 412 739 480 985
35 125 38 169 17 217 -46 105 -191 304 -453 624 -261 318 -352 455 -391 588
-20 68 -20 197 -1 316 19 113 19 186 1 230 -23 54 -59 66 -128 41z"/>
<path d="M2406 12369 c-430 -378 -562 -504 -624 -596 -115 -169 -127 -274
-115 -936 l8 -399 119 284 c211 501 282 636 381 726 64 59 116 78 230 87 105
8 170 27 227 65 65 43 109 107 169 244 62 140 108 194 190 222 48 17 87 19
339 20 311 0 362 8 409 58 66 71 -68 195 -347 322 -147 66 -574 244 -587 244
-6 0 -186 -153 -399 -341z"/>
<path d="M3312 11850 c-152 -21 -222 -60 -222 -122 0 -60 52 -119 200 -226
173 -125 216 -166 252 -239 28 -58 32 -76 36 -171 2 -64 -5 -199 -17 -333 -28
-301 -27 -517 3 -546 36 -36 506 471 666 717 34 53 41 71 36 98 -6 41 -185
491 -231 582 -65 130 -131 194 -231 226 -58 18 -392 28 -492 14z"/>
<path d="M2899 11390 c-151 -80 -247 -411 -170 -584 42 -96 269 -289 453 -386
89 -47 119 -50 155 -14 23 23 25 31 20 79 -7 70 -27 106 -93 169 -86 82 -96
117 -104 376 -7 231 -13 256 -67 320 -50 60 -127 76 -194 40z"/>
<path d="M2290 11134 c-47 -42 -97 -128 -135 -229 -64 -171 -126 -495 -127
-660 -1 -88 2 -109 25 -157 29 -64 87 -132 167 -193 129 -100 421 -239 725
-346 321 -114 390 -141 554 -220 224 -108 334 -183 444 -303 49 -53 109 -108
134 -123 44 -26 46 -26 59 -8 19 26 18 60 -11 199 -90 441 -278 689 -643 846
-79 34 -177 67 -397 133 -318 95 -521 264 -589 490 -29 94 -46 218 -46 327 0
93 -16 182 -40 231 -32 61 -63 64 -120 13z"/>
<path d="M7 10824 c-22 -23 11 -99 109 -249 158 -243 260 -558 324 -1000 17
-121 42 -265 55 -320 96 -407 287 -678 581 -824 103 -51 181 -74 345 -102 114
-20 170 -24 369 -24 235 0 291 6 334 38 18 13 18 19 7 78 -19 96 -70 226 -198
504 -187 406 -254 595 -278 786 -16 127 -40 224 -85 346 -97 265 -209 433
-326 488 -67 32 -161 44 -334 45 -258 0 -410 36 -650 150 -157 75 -236 101
-253 84z"/>
<path d="M6525 10711 c-89 -15 -208 -51 -285 -88 -131 -63 -290 -239 -412
-461 -157 -282 -299 -500 -433 -662 -110 -132 -151 -192 -210 -302 -111 -211
-153 -343 -210 -663 -19 -110 -37 -210 -40 -222 l-5 -23 297 0 c468 0 600 34
713 184 107 141 143 332 155 816 9 347 29 481 94 625 59 130 188 289 342 423
107 94 184 142 247 153 61 11 112 62 112 112 0 38 -35 78 -85 97 -38 15 -214
21 -280 11z"/>
<path d="M4464 10542 c-80 -58 -211 -209 -249 -284 -78 -159 -56 -294 123
-759 112 -290 160 -624 141 -983 -13 -244 0 -366 40 -366 44 0 104 124 174
360 100 336 139 630 140 1055 0 276 -8 385 -44 579 -33 178 -87 292 -185 389
-47 46 -85 49 -140 9z"/>
<path d="M2024 9649 c-26 -29 -32 -179 -10 -272 83 -355 530 -1079 803 -1299
76 -62 222 -148 311 -184 227 -91 399 -68 627 86 204 138 295 303 265 479 -19
111 -71 203 -175 306 -49 50 -119 110 -155 133 -160 105 -381 190 -620 236
-253 50 -483 136 -631 237 -35 24 -109 86 -165 139 -105 100 -185 160 -214
160 -9 0 -25 -9 -36 -21z"/>
<path d="M6647 9066 c-121 -45 -226 -197 -235 -340 -5 -92 21 -166 81 -226 55
-55 107 -78 217 -95 143 -21 219 -82 359 -287 168 -248 237 -222 182 67 -70
363 -206 678 -350 808 -81 73 -178 101 -254 73z"/>
<path d="M1674 8030 c-66 -12 -260 -71 -373 -113 -242 -91 -383 -227 -326
-313 47 -73 202 -90 475 -54 341 45 450 2 855 -335 302 -252 517 -371 780
-431 168 -38 392 -21 589 46 200 67 349 155 660 389 245 184 381 273 537 351
225 113 395 160 581 160 130 0 184 -10 373 -66 283 -86 405 -67 294 45 -62 61
-146 114 -324 201 -204 100 -267 121 -380 127 -162 9 -262 -18 -880 -237 -612
-217 -789 -269 -993 -291 -266 -28 -454 26 -959 280 -186 93 -403 185 -511
217 -70 21 -113 27 -217 30 -71 1 -153 -1 -181 -6z"/>
<path d="M5349 7350 c-108 -19 -161 -76 -161 -172 1 -91 78 -167 170 -168 75
0 180 -80 252 -192 84 -129 105 -257 55 -331 -24 -34 -24 -37 -6 -37 10 0 41
15 67 33 58 38 107 126 125 222 28 150 -9 358 -83 466 -85 125 -271 204 -419
179z"/>
<path d="M1692 7074 c-143 -71 -266 -330 -328 -692 -51 -300 -21 -443 85 -406
50 18 77 77 99 219 20 128 106 274 285 484 92 109 127 174 127 234 0 88 -100
187 -188 187 -15 0 -51 -12 -80 -26z"/>
<path d="M4609 6890 c-167 -28 -259 -168 -259 -393 0 -114 13 -195 62 -392 44
-180 59 -335 39 -398 -8 -24 -31 -53 -64 -80 -78 -65 -104 -94 -110 -124 -7
-36 23 -125 68 -202 108 -184 148 -423 147 -891 0 -448 -59 -1028 -129 -1259
-42 -142 -94 -174 -219 -136 -53 16 -102 19 -120 7 -38 -25 -44 -143 -19 -347
37 -294 2 -532 -127 -860 -122 -311 -323 -658 -672 -1159 -252 -362 -374 -595
-335 -642 92 -111 722 443 1022 897 244 371 537 979 752 1564 94 257 148 432
225 730 203 789 354 1043 1135 1910 208 231 335 389 335 418 0 29 -32 20 -172
-51 -283 -143 -586 -369 -1018 -756 l-185 -166 -2 238 c-4 421 -22 974 -38
1163 -32 371 -89 682 -152 821 -25 57 -82 119 -106 117 -7 -1 -33 -5 -58 -9z"/>
<path d="M3355 6462 c-51 -24 -75 -66 -75 -129 0 -56 20 -102 83 -195 95 -141
114 -306 71 -628 -24 -182 -14 -309 27 -330 84 -45 214 221 283 578 65 338 60
458 -22 558 -101 123 -273 191 -367 146z"/>
<path d="M6625 6313 c-363 -32 -830 -354 -745 -513 22 -41 115 -50 235 -25 85
19 253 21 320 4 28 -6 66 -20 87 -30 61 -31 124 -40 348 -49 546 -24 1390 45
1368 112 -19 56 -566 261 -1074 403 -275 77 -440 107 -539 98z"/>
<path d="M7065 5479 c-196 -25 -442 -153 -686 -358 -218 -182 -374 -391 -395
-528 -41 -271 374 -331 961 -138 184 60 305 111 585 245 477 230 804 351 1130
421 215 46 320 92 320 139 0 86 -406 167 -1075 215 -218 16 -727 18 -840 4z"/>
</g>
</svg>
